2014031_C4_02_grf
version=1
nRows=21
nColumns=19
inDegrees=no
endheader
time	ground_force_1_vx	ground_force_1_vy	ground_force_1_vz	ground_force_1_px	ground_force_1_py	ground_force_1_pz	ground_force_1_mx	ground_force_1_my	ground_force_1_mz	ground_force_2_vx	ground_force_2_vy	ground_force_2_vz	ground_force_2_px	ground_force_2_py	ground_force_2_pz	ground_force_2_mx	ground_force_2_my	ground_force_2_mz
      0.85000000	      0.00000000	      0.00000000	      0.00000000	      0.00000000	      0.00000000	      0.00000000	      0.00000000	      0.00000000	      0.00000000	    -19.60826851	    564.79310989	    -22.72744477	      0.72754930	     -0.00200000	     -0.17070985	      0.00000000	      1.40818078	      0.00000000
      0.85100000	      0.00000000	      0.00000000	      0.00000000	      0.00000000	      0.00000000	      0.00000000	      0.00000000	      0.00000000	      0.00000000	    -19.12426762	    562.62010336	    -22.65149169	      0.72783401	     -0.00200000	     -0.17059456	      0.00000000	      1.41568043	      0.00000000
      0.85200000	      0.00000000	      0.00000000	      0.00000000	      0.00000000	      0.00000000	      0.00000000	      0.00000000	      0.00000000	      0.00000000	    -18.64580251	    560.46807766	    -22.57944457	      0.72812307	     -0.00200000	     -0.17047765	      0.00000000	      1.42299345	      0.00000000
      0.85300000	      0.00000000	      0.00000000	      0.00000000	      0.00000000	      0.00000000	      0.00000000	      0.00000000	      0.00000000	      0.00000000	    -18.17435399	    558.34314227	    -22.51234930	      0.72841763	     -0.00200000	     -0.17035866	      0.00000000	      1.43007491	      0.00000000
      0.85400000	      0.00000000	      0.00000000	      0.00000000	      0.00000000	      0.00000000	      0.00000000	      0.00000000	      0.00000000	      0.00000000	    -17.70859398	    556.24055862	    -22.44926058	      0.72871664	     -0.00200000	     -0.17023799	      0.00000000	      1.43697175	      0.00000000
      0.85500000	      0.00000000	      0.00000000	      0.00000000	      0.00000000	      0.00000000	      0.00000000	      0.00000000	      0.00000000	      0.00000000	    -17.25004055	    554.16694283	    -22.39121031	      0.72902128	     -0.00200000	     -0.17011524	      0.00000000	      1.44363680	      0.00000000
      0.85600000	      0.00000000	      0.00000000	      0.00000000	      0.00000000	      0.00000000	      0.00000000	      0.00000000	      0.00000000	      0.00000000	    -16.79732092	    552.11710930	    -22.33720943	      0.72933047	     -0.00200000	     -0.16999081	      0.00000000	      1.45011577	      0.00000000
      0.85700000	      0.00000000	      0.00000000	      0.00000000	      0.00000000	      0.00000000	      0.00000000	      0.00000000	      0.00000000	      0.00000000	    -16.35196339	    550.09791255	    -22.28826378	      0.72964540	     -0.00200000	     -0.16986430	      0.00000000	      1.45635998	      0.00000000
      0.85800000	      0.00000000	      0.00000000	      0.00000000	      0.00000000	      0.00000000	      0.00000000	      0.00000000	      0.00000000	      0.00000000	    -15.91253653	    548.10386896	    -22.24334888	      0.72996495	     -0.00200000	     -0.16973613	      0.00000000	      1.46241504	      0.00000000
      0.85900000	      0.00000000	      0.00000000	      0.00000000	      0.00000000	      0.00000000	      0.00000000	      0.00000000	      0.00000000	      0.00000000	    -15.48056491	    546.14195228	    -22.20343612	      0.73029031	     -0.00200000	     -0.16960588	      0.00000000	      1.46823374	      0.00000000
      0.86000000	      0.00000000	      0.00000000	      0.00000000	      0.00000000	      0.00000000	      0.00000000	      0.00000000	      0.00000000	      0.00000000	    -15.05459566	    544.20644045	    -22.16748893	      0.73062035	     -0.00200000	     -0.16947398	      0.00000000	      1.47386522	      0.00000000
      0.86100000	      0.00000000	      0.00000000	      0.00000000	      0.00000000	      0.00000000	      0.00000000	      0.00000000	      0.00000000	      0.00000000	    -14.63617478	    542.30472445	    -22.13644423	      0.73095627	     -0.00200000	     -0.16934003	      0.00000000	      1.47926907	      0.00000000
      0.86200000	      0.00000000	      0.00000000	      0.00000000	      0.00000000	      0.00000000	      0.00000000	      0.00000000	      0.00000000	      0.00000000	    -14.22383357	    540.43060541	    -22.10927196	      0.73129692	     -0.00200000	     -0.16920443	      0.00000000	      1.48449911	      0.00000000
      0.86300000	      0.00000000	      0.00000000	      0.00000000	      0.00000000	      0.00000000	      0.00000000	      0.00000000	      0.00000000	      0.00000000	    -13.81913759	    538.59198093	    -22.08686061	      0.73164348	     -0.00200000	     -0.16906679	      0.00000000	      1.48952399	      0.00000000
      0.86400000	      0.00000000	      0.00000000	      0.00000000	      0.00000000	      0.00000000	      0.00000000	      0.00000000	      0.00000000	      0.00000000	    -13.42059020	    536.78232431	    -22.06818387	      0.73199476	     -0.00200000	     -0.16892752	      0.00000000	      1.49439660	      0.00000000
      0.86500000	      0.00000000	      0.00000000	      0.00000000	      0.00000000	      0.00000000	      0.00000000	      0.00000000	      0.00000000	      0.00000000	    -13.02976534	    535.00974178	    -22.05406874	      0.73235193	     -0.00200000	     -0.16878625	      0.00000000	      1.49909581	      0.00000000
      0.86600000	      0.00000000	      0.00000000	      0.00000000	      0.00000000	      0.00000000	      0.00000000	      0.00000000	      0.00000000	      0.00000000	    -12.64513656	    533.26743841	    -22.04350382	      0.73271378	     -0.00200000	     -0.16864337	      0.00000000	      1.50367078	      0.00000000
      0.86700000	      0.00000000	      0.00000000	      0.00000000	      0.00000000	      0.00000000	      0.00000000	      0.00000000	      0.00000000	      0.00000000	    -12.26826524	    531.56387806	    -22.03723229	      0.73308146	     -0.00200000	     -0.16849855	      0.00000000	      1.50810801	      0.00000000
      0.86800000	      0.00000000	      0.00000000	      0.00000000	      0.00000000	      0.00000000	      0.00000000	      0.00000000	      0.00000000	      0.00000000	    -11.89759839	    529.89196777	    -22.03426883	      0.73345375	     -0.00200000	     -0.16835219	      0.00000000	      1.51244891	      0.00000000
      0.86900000	      0.00000000	      0.00000000	      0.00000000	      0.00000000	      0.00000000	      0.00000000	      0.00000000	      0.00000000	      0.00000000	    -11.53467456	    528.26043963	    -22.03526534	      0.73383174	     -0.00200000	     -0.16820399	      0.00000000	      1.51668679	      0.00000000
      0.87000000	      0.00000000	      0.00000000	      0.00000000	      0.00000000	      0.00000000	      0.00000000	      0.00000000	      0.00000000	      0.00000000	    -11.17792446	    526.66187286	    -22.03927934	      0.73421424	     -0.00200000	     -0.16805435	      0.00000000	      1.52085693	      0.00000000
